HIERARCHY
ROOT hip
{
  OFFSET 0 0 0
  CHANNELS 6 Xposition Yposition Zposition Zrotation Yrotation Xrotation
  JOINT abdomen
  {
    OFFSET 0 20.6881 -0.73152
    CHANNELS 3 Zrotation Xrotation Yrotation
    JOINT chest
    {
      OFFSET 0 11.7043 -0.48768
      CHANNELS 3 Zrotation Xrotation Yrotation
      JOINT neck
      {
        OFFSET 0 22.1894 -2.19456
        CHANNELS 3 Zrotation Xrotation Yrotation
        JOINT head
        {
          OFFSET -0.24384 7.07133 1.2192
          CHANNELS 3 Zrotation Xrotation Yrotation
          JOINT leftEye
          {
            OFFSET 4.14528 8.04674 8.04672
            CHANNELS 3 Zrotation Xrotation Yrotation
            End Site
            {
              OFFSET 1 0 0
            }
          }
          JOINT rightEye
          {
            OFFSET -3.6576 8.04674 8.04672
            CHANNELS 3 Zrotation Xrotation Yrotation
            End Site
            {
              OFFSET 1 0 0
            }
          }
        }
      }
      JOINT rCollar
      {
        OFFSET -2.68224 19.2634 -4.8768
        CHANNELS 3 Zrotation Xrotation Yrotation
        JOINT rShldr
        {
          OFFSET -8.77824 -1.95073 1.46304
          CHANNELS 3 Zrotation Xrotation Yrotation
          JOINT rForeArm
          {
            OFFSET -28.1742 -1.7115 0.48768
            CHANNELS 3 Zrotation Xrotation Yrotation
            JOINT rHand
            {
              OFFSET -22.5879 0.773209 7.07136
              CHANNELS 3 Zrotation Xrotation Yrotation
              JOINT rThumb1
              {
                OFFSET -1.2192 -0.487915 3.41376
                CHANNELS 3 Zrotation Xrotation Yrotation
                JOINT rThumb2
                {
                  OFFSET -3.37035 -0.52449 3.41376
                  CHANNELS 3 Zrotation Xrotation Yrotation
                  End Site
                  {
                    OFFSET -1.78271 -1.18214 1.43049
                  }
                }
              }
              JOINT rIndex1
              {
                OFFSET -7.75947 0.938293 5.60832
                CHANNELS 3 Zrotation Xrotation Yrotation
                JOINT rIndex2
                {
                  OFFSET -2.54057 -0.884171 1.56538
                  CHANNELS 3 Zrotation Xrotation Yrotation
                  End Site
                  {
                    OFFSET -1.62519 -0.234802 1.16502
                  }
                }
              }
              JOINT rMid1
              {
                OFFSET -8.24714 1.18213 3.41376
                CHANNELS 3 Zrotation Xrotation Yrotation
                JOINT rMid2
                {
                  OFFSET -3.10165 -0.590103 1.0647
                  CHANNELS 3 Zrotation Xrotation Yrotation
                  End Site
                  {
                    OFFSET -2.48547 -0.328903 0.83742
                  }
                }
              }
              JOINT rRing1
              {
                OFFSET -8.82822 0.546677 1.51678
                CHANNELS 3 Zrotation Xrotation Yrotation
                JOINT rRing2
                {
                  OFFSET -2.60934 -0.819778 -0.0198488
                  CHANNELS 3 Zrotation Xrotation Yrotation
                  End Site
                  {
                    OFFSET -2.33842 -0.294052 0.168128
                  }
                }
              }
              JOINT rPinky1
              {
                OFFSET -8.27202 -0.0477905 -0.4584
                CHANNELS 3 Zrotation Xrotation Yrotation
                JOINT rPinky2
                {
                  OFFSET -1.82734 -0.647385 -0.700984
                  CHANNELS 3 Zrotation Xrotation Yrotation
                  End Site
                  {
                    OFFSET -1.69225 -0.51767 -0.607171
                  }
                }
              }
            }
          }
        }
      }
      JOINT lCollar
      {
        OFFSET 2.68224 19.2634 -4.8768
        CHANNELS 3 Zrotation Xrotation Yrotation
        JOINT lShldr
        {
          OFFSET 8.77824 -1.95073 1.46304
          CHANNELS 3 Zrotation Xrotation Yrotation
          JOINT lForeArm
          {
            OFFSET 28.1742 -1.7115 0.48768
            CHANNELS 3 Zrotation Xrotation Yrotation
            JOINT lHand
            {
              OFFSET 22.5879 0.773209 7.07136
              CHANNELS 3 Zrotation Xrotation Yrotation
              JOINT lThumb1
              {
                OFFSET 1.2192 -0.487915 3.41376
                CHANNELS 3 Zrotation Xrotation Yrotation
                JOINT lThumb2
                {
                  OFFSET 3.37035 -0.52449 3.41376
                  CHANNELS 3 Zrotation Xrotation Yrotation
                  End Site
                  {
                    OFFSET 1.78271 -1.18214 1.43049
                  }
                }
              }
              JOINT lIndex1
              {
                OFFSET 7.75947 0.938293 5.60832
                CHANNELS 3 Zrotation Xrotation Yrotation
                JOINT lIndex2
                {
                  OFFSET 2.54057 -0.884171 1.56538
                  CHANNELS 3 Zrotation Xrotation Yrotation
                  End Site
                  {
                    OFFSET 1.62519 -0.234802 1.16502
                  }
                }
              }
              JOINT lMid1
              {
                OFFSET 8.24714 1.18213 3.41376
                CHANNELS 3 Zrotation Xrotation Yrotation
                JOINT lMid2
                {
                  OFFSET 3.10165 -0.590103 1.0647
                  CHANNELS 3 Zrotation Xrotation Yrotation
                  End Site
                  {
                    OFFSET 2.48547 -0.328903 0.83742
                  }
                }
              }
              JOINT lRing1
              {
                OFFSET 8.82822 0.546677 1.51678
                CHANNELS 3 Zrotation Xrotation Yrotation
                JOINT lRing2
                {
                  OFFSET 2.60934 -0.819778 -0.0198488
                  CHANNELS 3 Zrotation Xrotation Yrotation
                  End Site
                  {
                    OFFSET 2.33842 -0.294052 0.168128
                  }
                }
              }
              JOINT lPinky1
              {
                OFFSET 8.27202 -0.0477905 -0.4584
                CHANNELS 3 Zrotation Xrotation Yrotation
                JOINT lPinky2
                {
                  OFFSET 1.82734 -0.647385 -0.700984
                  CHANNELS 3 Zrotation Xrotation Yrotation
                  End Site
                  {
                    OFFSET 1.69225 -0.51767 -0.607171
                  }
                }
              }
            }
          }
        }
      }
    }
  }
  JOINT rButtock
  {
    OFFSET -8.77824 4.35084 1.2192
    CHANNELS 3 Zrotation Xrotation Yrotation
    JOINT rThigh
    {
      OFFSET 0 -1.70687 -2.19456
      CHANNELS 3 Zrotation Xrotation Yrotation
      JOINT rShin
      {
        OFFSET 0 -36.8199 0.73152
        CHANNELS 3 Zrotation Xrotation Yrotation
        JOINT rFoot
        {
          OFFSET 0.73152 -45.1104 -5.12064
          CHANNELS 3 Zrotation Xrotation Yrotation
          End Site
          {
            OFFSET -1.1221 -3.69964 12.103
          }
        }
      }
    }
  }
  JOINT lButtock
  {
    OFFSET 8.77824 4.35084 1.2192
    CHANNELS 3 Zrotation Xrotation Yrotation
    JOINT lThigh
    {
      OFFSET 0 -1.70687 -2.19456
      CHANNELS 3 Zrotation Xrotation Yrotation
      JOINT lShin
      {
        OFFSET 0 -36.8199 0.73152
        CHANNELS 3 Zrotation Xrotation Yrotation
        JOINT lFoot
        {
          OFFSET -0.73152 -45.1104 -5.12064
          CHANNELS 3 Zrotation Xrotation Yrotation
          End Site
          {
            OFFSET 1.1221 -3.69964 12.103
          }
        }
      }
    }
  }
}
MOTION
Frames:	8
Frame Time:	0.00833333
60.7219 26.0816 28.9773 -181.196 -1.0985 53.7767 -4.74186 43.1946 3.42913 -4.62511 1.46743 2.70822 2.9626 13.2469 -1.08477 -0.796852 -15.1174 -1.6892 -0.0 0.0 0.0 -0.0 0.0 0.0 -1.27267e-14 -5.24745e-14 -1.83876e-15 37.6834 -20.988 71.8456 -27.9084 -40.8726 85.5001 -0.00547294 2.11184 0.296935 8.31618e-10 5.92878e-09 -1.04935e-09 1.43519e-09 1.02434e-08 -1.81542e-09 8.31628e-10 5.9288e-09 -1.04936e-09 7.73091 5.47488 0.417314 8.31617e-10 5.92878e-09 -1.04935e-09 2.90554 0.965183 0.102902 8.31623e-10 5.92879e-09 -1.04935e-09 10.2786 0.731801 0.0259123 8.31607e-10 5.92878e-09 -1.04934e-09 2.22167 -0.733487 -0.20892 -1.27185e-14 -5.24838e-14 -2.13694e-15 -16.8033 -23.2326 -74.577 28.429 -35.1627 -75.6146 0.00367207 -1.72999 0.243209 -5.27215e-10 4.26059e-09 1.03954e-09 -9.13601e-10 7.36444e-09 1.79518e-09 -5.27221e-10 4.26057e-09 1.03955e-09 -7.73091 5.47488 -0.417314 -5.2721e-10 4.26059e-09 1.03955e-09 -2.90554 0.965183 -0.102902 -5.27218e-10 4.26059e-09 1.03954e-09 -10.2786 0.731801 -0.0259123 -5.27212e-10 4.26059e-09 1.03953e-09 -2.22167 -0.733487 0.20892 -2.03217e-16 0.0 -3.88251e-19 -90.1209 -52.7589 -45.8125 -0.120583 27.9027 0.153244 -3.06886 -0.377317 -17.8198 2.03217e-16 0.0 3.88251e-19 93.4294 -44.8364 60.9416 0.461245 39.7206 0.153912 2.36275 3.96394 -0.782654
60.6542 24.796 27.957 -181.235 -1.2804 56.3625 -3.75087 42.4892 3.37062 -5.08077 1.56602 3.07568 2.63989 13.4321 -1.40873 -0.703398 -12.9215 -1.96493 -0.0 0.0 0.0 -0.0 0.0 0.0 -5.30388e-15 -6.91927e-14 2.25419e-15 35.6956 -17.6813 69.6027 -28.2517 -39.3278 82.4523 -0.00657409 2.67199 0.37566 9.05892e-10 5.89092e-09 -1.26675e-09 1.56253e-09 1.01796e-08 -2.19202e-09 9.05898e-10 5.89093e-09 -1.26676e-09 7.73091 5.47488 0.417314 9.0589e-10 5.89092e-09 -1.26676e-09 2.90554 0.965183 0.102902 9.05897e-10 5.89092e-09 -1.26675e-09 10.2786 0.731801 0.0259123 9.05883e-10 5.89092e-09 -1.26674e-09 2.22167 -0.733487 -0.20892 -5.30657e-15 -6.91986e-14 1.93e-15 -13.0746 -19.7738 -72.2407 28.3028 -33.8506 -73.8943 0.00597506 -2.00602 0.28209 -4.50166e-10 4.19021e-09 1.15326e-09 -7.81084e-10 7.24213e-09 1.99208e-09 -4.5017e-10 4.19019e-09 1.15327e-09 -7.73091 5.47488 -0.417314 -4.50161e-10 4.19021e-09 1.15326e-09 -2.90554 0.965183 -0.102902 -4.50168e-10 4.19021e-09 1.15326e-09 -10.2786 0.731801 -0.0259123 -4.50162e-10 4.19021e-09 1.15325e-09 -2.22167 -0.733487 0.20892 -2.03217e-16 0.0 -3.88251e-19 -89.018 -52.6211 -45.9509 -0.149465 29.1071 0.147211 -2.52124 1.32262 -16.9811 2.03217e-16 0.0 3.88251e-19 93.0512 -44.2515 60.748 0.492196 41.1804 0.109311 2.33689 3.84179 -0.655816
60.9421 23.5499 27.0011 -182.089 -0.1997 58.9111 -2.50517 41.66 3.4742 -5.58238 1.45373 3.14602 2.05443 14.031 -1.77221 -0.365826 -10.0512 -2.11717 -0.0 0.0 0.0 -0.0 0.0 0.0 7.8639e-15 -9.57644e-14 1.22004e-14 34.3361 -13.3904 67.7601 -28.4501 -37.4454 79.2411 -0.0148691 3.99246 0.561681 9.0343e-10 5.22555e-09 -1.39855e-09 1.55737e-09 9.03369e-09 -2.42044e-09 9.03433e-10 5.22555e-09 -1.39856e-09 7.73091 5.47488 0.417314 9.03426e-10 5.22554e-09 -1.39855e-09 2.90554 0.965183 0.102902 9.03435e-10 5.22555e-09 -1.39855e-09 10.2786 0.731801 0.0259123 9.03424e-10 5.22555e-09 -1.39855e-09 2.22167 -0.733487 -0.20892 7.8406e-15 -9.57644e-14 1.1837e-14 -9.73023 -15.5141 -69.5219 28.2111 -32.8896 -72.5722 0.00740056 -2.12376 0.298719 -2.78445e-10 3.63695e-09 1.16124e-09 -4.85025e-10 6.2848e-09 2.00628e-09 -2.78448e-10 3.63694e-09 1.16125e-09 -7.73091 5.47488 -0.417314 -2.78442e-10 3.63695e-09 1.16125e-09 -2.90554 0.965183 -0.102902 -2.78449e-10 3.63695e-09 1.16124e-09 -10.2786 0.731801 -0.0259123 -2.78441e-10 3.63695e-09 1.16123e-09 -2.22167 -0.733487 0.20892 -2.03217e-16 0.0 -3.88251e-19 -87.6218 -52.5606 -46.0584 -0.180536 30.4529 0.145337 -2.03311 2.96671 -16.0002 2.03217e-16 0.0 3.88251e-19 92.569 -43.6011 60.3556 0.525096 42.6353 0.0477439 2.29155 3.2916 -0.586822
61.3213 22.3209 26.0741 -182.942 1.1333 61.4607 -1.19398 40.6944 3.61272 -6.01607 1.31994 3.08082 1.43552 14.6972 -2.09993 0.0380865 -7.1118 -2.15584 -0.0 0.0 0.0 -0.0 0.0 0.0 1.67093e-14 -1.18584e-13 1.64316e-14 33.6209 -8.90017 66.6677 -28.4671 -35.4303 76.0457 -0.0324122 5.35116 0.754045 8.68676e-10 4.23326e-09 -1.40524e-09 1.49666e-09 7.32296e-09 -2.43224e-09 8.68676e-10 4.23326e-09 -1.40524e-09 7.73091 5.47488 0.417314 8.68671e-10 4.23326e-09 -1.40524e-09 2.90554 0.965183 0.102902 8.68681e-10 4.23327e-09 -1.40524e-09 10.2786 0.731801 0.0259123 8.68673e-10 4.23327e-09 -1.40524e-09 2.22167 -0.733487 -0.20892 1.66627e-14 -1.18578e-13 1.60367e-14 -7.24788 -10.7757 -67.5123 28.1565 -32.055 -71.0697 0.00809931 -2.29097 0.322258 -7.01931e-11 2.85187e-09 1.03331e-09 -1.25298e-10 4.92701e-09 1.78564e-09 -7.01946e-11 2.85187e-09 1.03333e-09 -7.73091 5.47488 -0.417314 -7.01908e-11 2.85187e-09 1.03332e-09 -2.90554 0.965183 -0.102902 -7.01977e-11 2.85187e-09 1.03332e-09 -10.2786 0.731801 -0.0259123 -7.01877e-11 2.85187e-09 1.0333e-09 -2.22167 -0.733487 0.20892 -2.03217e-16 0.0 -3.88251e-19 -86.1426 -52.5988 -46.223 -0.211812 31.8491 0.147707 -1.63163 4.48778 -15.0848 2.03217e-16 0.0 3.88251e-19 92.1795 -42.9426 59.9856 0.55886 44.0118 -0.0212077 2.23892 2.62123 -0.504781
61.299 21.0496 25.137 -182.822 0.9691 64.2819 -0.016155 39.5796 3.66566 -6.26801 1.35397 3.04162 1.00098 15.0849 -2.31346 0.326929 -4.7085 -2.08591 -0.0 0.0 0.0 -0.0 0.0 0.0 1.1165e-14 -1.24046e-13 3.37934e-15 33.4502 -4.97673 66.1525 -28.3522 -33.5077 72.8957 -0.0447482 6.02625 0.850103 8.46072e-10 3.21467e-09 -1.24732e-09 1.45735e-09 5.56462e-09 -2.15895e-09 8.46071e-10 3.21466e-09 -1.24732e-09 7.73091 5.47488 0.417314 8.46068e-10 3.21467e-09 -1.24732e-09 2.90554 0.965183 0.102902 8.46078e-10 3.21467e-09 -1.24732e-09 10.2786 0.731801 0.0259123 8.4607e-10 3.21467e-09 -1.24732e-09 2.22167 -0.733487 -0.20892 1.10995e-14 -1.24037e-13 2.98177e-15 -5.76671 -6.35335 -66.7722 28.0677 -31.0324 -68.8993 0.00905164 -2.71539 0.381913 1.16453e-10 2.08603e-09 7.39295e-10 1.98219e-10 3.60332e-09 1.27802e-09 1.16452e-10 2.08604e-09 7.39307e-10 -7.73091 5.47488 -0.417314 1.16454e-10 2.08603e-09 7.39301e-10 -2.90554 0.965183 -0.102902 1.16447e-10 2.08603e-09 7.39295e-10 -10.2786 0.731801 -0.0259123 1.16459e-10 2.08603e-09 7.39282e-10 -2.22167 -0.733487 0.20892 -2.03217e-16 0.0 -3.88251e-19 -84.7921 -52.7564 -46.5338 -0.24134 33.2045 0.154417 -1.31782 5.81232 -14.4427 2.03217e-16 0.0 3.88251e-19 92.0653 -42.3388 59.8428 0.590528 45.2367 -0.086701 2.19196 2.13853 -0.338709
61.3539 19.934 24.2891 -182.867 1.1407 66.8866 0.967006 38.283 3.61269 -6.26963 1.5924 3.04759 0.800198 15.0134 -2.35514 0.463929 -2.97611 -1.84601 -0.0 0.0 0.0 -0.0 0.0 0.0 -2.56983e-14 -1.0008e-13 -4.49987e-14 33.8027 -1.66836 65.8997 -28.158 -31.588 69.5956 -0.0442727 5.84554 0.824444 9.20818e-10 2.0445e-09 -7.87105e-10 1.58688e-09 3.541e-09 -1.36206e-09 9.2082e-10 2.04449e-09 -7.871e-10 7.73091 5.47488 0.417314 9.20817e-10 2.0445e-09 -7.871e-10 2.90554 0.965183 0.102902 9.20825e-10 2.04451e-09 -7.87108e-10 10.2786 0.731801 0.0259123 9.20815e-10 2.0445e-09 -7.87104e-10 2.22167 -0.733487 -0.20892 -2.57824e-14 -1.00071e-13 -4.53551e-14 -5.11319 -2.66469 -67.1799 27.8265 -29.454 -65.8543 0.0173281 -3.3002 0.465211 2.7431e-10 1.27784e-09 9.35335e-11 4.74405e-10 2.20795e-09 1.62425e-10 2.74307e-10 1.27785e-09 9.35439e-11 -7.73091 5.47488 -0.417314 2.74311e-10 1.27784e-09 9.3539e-11 -2.90554 0.965183 -0.102902 2.74303e-10 1.27784e-09 9.35343e-11 -10.2786 0.731801 -0.0259123 2.74315e-10 1.27784e-09 9.35216e-11 -2.22167 -0.733487 0.20892 -2.03217e-16 0.0 -3.88251e-19 -83.6711 -53.1351 -47.1465 -0.269711 34.5318 0.16645 -1.10546 6.76906 -14.2364 2.03217e-16 0.0 3.88251e-19 92.365 -41.8097 60.0202 0.616279 46.2553 -0.146824 2.1522 1.7829 -0.0620763
61.7812 18.7059 23.453 -183.299 2.4232 70.3651 1.85784 36.8209 3.51934 -6.09428 1.93888 3.02065 0.716577 14.6971 -2.27822 0.520038 -1.59994 -1.45378 -0.0 0.0 0.0 -0.0 0.0 0.0 -8.37632e-14 -5.67565e-14 -1.17547e-13 34.6413 1.38178 65.8213 -27.8156 -29.4704 66.1634 -0.0378448 5.18727 0.731006 1.04476e-09 6.30918e-10 -8.80439e-11 1.8019e-09 1.0948e-09 -1.51507e-10 1.04477e-09 6.30904e-10 -8.80336e-11 7.73091 5.47488 0.417314 1.04477e-09 6.30907e-10 -8.80326e-11 2.90554 0.965183 0.102902 1.04477e-09 6.30917e-10 -8.80477e-11 10.2786 0.731801 0.0259123 1.04475e-09 6.30918e-10 -8.80414e-11 2.22167 -0.733487 -0.20892 -8.38675e-14 -5.67502e-14 -1.17833e-13 -5.05207 0.506621 -68.2075 27.3365 -27.3312 -62.361 0.0316145 -3.98533 0.563467 4.31611e-10 3.36259e-10 -8.28672e-10 7.51356e-10 5.83023e-10 -1.43098e-09 4.31607e-10 3.36264e-10 -8.28665e-10 -7.73091 5.47488 -0.417314 4.31612e-10 3.36258e-10 -8.28667e-10 -2.90554 0.965183 -0.102902 4.31604e-10 3.36257e-10 -8.28671e-10 -10.2786 0.731801 -0.0259123 4.31616e-10 3.36256e-10 -8.28682e-10 -2.22167 -0.733487 0.20892 -2.03217e-16 0.0 -3.88251e-19 -82.673 -53.6851 -47.9911 -0.298332 35.8673 0.183865 -0.953282 7.43834 -14.3145 2.03217e-16 0.0 3.88251e-19 92.94 -41.3208 60.3814 0.637491 47.1185 -0.20629 2.11537 1.43767 0.284711
62.1673 17.4894 22.636 -183.488 3.6381 73.9484 2.69487 35.2543 3.39888 -5.84 2.38347 2.97633 0.713346 14.3829 -2.16873 0.491047 -0.511376 -1.028 -0.0 0.0 0.0 -0.0 0.0 0.0 -1.32527e-13 -1.3681e-14 -1.82037e-13 35.8829 4.15201 65.7734 -27.2929 -27.2656 62.7765 -0.0260924 4.1554 0.584984 1.06232e-09 -6.75361e-10 5.87659e-10 1.83319e-09 -1.16627e-09 1.01851e-09 1.06233e-09 -6.75376e-10 5.87674e-10 7.73091 5.47488 0.417314 1.06233e-09 -6.75376e-10 5.87676e-10 2.90554 0.965183 0.102902 1.06233e-09 -6.75364e-10 5.87654e-10 10.2786 0.731801 0.0259123 1.06231e-09 -6.75362e-10 5.87664e-10 2.22167 -0.733487 -0.20892 -1.32642e-13 -1.3678e-14 -1.82246e-13 -5.54555 3.23554 -69.4478 26.5813 -24.9317 -58.841 0.0445604 -5.03356 0.711979 5.83343e-10 -5.31866e-10 -1.66609e-09 1.01803e-09 -9.15048e-10 -2.87755e-09 5.83336e-10 -5.31865e-10 -1.66608e-09 -7.73091 5.47488 -0.417314 5.83343e-10 -5.31868e-10 -1.66609e-09 -2.90554 0.965183 -0.102902 5.83335e-10 -5.31869e-10 -1.66609e-09 -10.2786 0.731801 -0.0259123 5.83347e-10 -5.31868e-10 -1.6661e-09 -2.22167 -0.733487 0.20892 -2.03217e-16 0.0 -3.88251e-19 -81.6805 -54.205 -48.8 -0.326282 37.1554 0.205252 -0.779866 8.12498 -14.4172 2.03217e-16 0.0 3.88251e-19 93.5523 -40.8568 60.7826 0.657874 47.9112 -0.263372 2.0807 1.32665 0.672458
